<?xml version="1.0" standalone="no"?>
<!DOCTYPE svg PUBLIC "-//W3C//DTD SVG 20010904//EN"
 "http://www.w3.org/TR/2001/REC-SVG-20010904/DTD/svg10.dtd">
<svg version="1.0" xmlns="http://www.w3.org/2000/svg"
 width="200.000000pt" height="200.000000pt" viewBox="0 0 200.000000 200.000000"
 preserveAspectRatio="xMidYMid meet">
<metadata>
Created by potrace 1.11, written by Peter Selinger 2001-2013
</metadata>
<g transform="translate(0.000000,200.000000) scale(0.100000,-0.100000)"
fill="#000000" stroke="none">
<path d="M692 1745 c-117 -68 -224 -138 -238 -155 -15 -17 -89 -108 -165 -203
l-139 -172 5 -45 c7 -50 10 -72 30 -205 8 -49 16 -110 19 -135 3 -25 8 -54 10
-65 2 -11 7 -43 11 -72 4 -29 14 -61 23 -72 10 -10 26 -30 37 -43 11 -12 53
-63 95 -113 41 -49 85 -102 98 -116 12 -14 28 -33 35 -42 6 -9 75 -34 152 -57
77 -22 203 -59 280 -81 l140 -41 205 118 c113 66 215 126 226 134 11 8 91 103
178 210 l157 195 -6 45 c-4 25 -8 56 -10 70 -4 23 -47 316 -62 417 -5 35 -23
63 -100 155 -52 62 -118 141 -146 175 l-51 61 -276 81 c-151 45 -279 81 -285
81 -5 -1 -106 -57 -223 -125z m508 6 c279 -82 233 -52 412 -264 55 -66 98
-120 96 -122 -2 -1 -30 -6 -63 -9 -33 -4 -76 -9 -95 -12 -19 -3 -62 -9 -94
-14 -66 -10 -76 -8 -76 21 0 10 -4 19 -10 19 -5 0 -10 -4 -10 -10 0 -5 -5 -10
-11 -10 -10 0 -402 233 -442 262 -17 12 -16 17 3 107 11 52 20 99 20 104 0 5
6 7 13 4 6 -2 122 -37 257 -76z m-310 52 c-1 -5 -9 -46 -19 -93 l-18 -85 -104
-92 c-94 -82 -106 -90 -121 -76 -10 9 -18 10 -22 4 -4 -5 -2 -12 4 -16 5 -3
10 -10 10 -14 0 -5 -50 -52 -112 -105 l-111 -96 -93 0 -93 0 139 173 c76 94
148 179 159 187 31 22 365 218 374 219 4 1 7 -2 7 -6z m374 -464 c-3 -5 1 -10
8 -10 25 -2 33 -5 61 -19 15 -7 27 -16 27 -19 -1 -18 -137 -552 -142 -556 -8
-8 -39 -12 -133 -19 -44 -3 -102 -8 -130 -11 -327 -32 -310 -32 -323 3 -6 15
-54 133 -107 262 l-97 235 39 35 c52 48 150 131 173 147 16 11 20 11 29 -4 13
-24 25 -10 12 15 -9 16 3 30 90 105 l100 86 199 -121 c110 -66 197 -124 194
-129z m498 -199 c15 -102 29 -203 32 -225 4 -22 9 -54 12 -71 8 -42 2 -50
-156 -248 l-134 -168 -51 53 c-64 69 -176 196 -193 221 -12 17 -6 52 47 266
34 136 66 263 71 283 l10 36 147 20 c82 12 157 20 168 20 18 -2 22 -19 47
-187z m-1367 48 c2 -3 188 -461 206 -510 9 -21 3 -54 -27 -165 -20 -76 -40
-144 -43 -150 -7 -14 -233 248 -256 295 -7 15 -16 50 -19 77 -4 28 -8 59 -10
70 -2 11 -11 74 -20 140 -18 125 -23 159 -32 212 l-6 32 83 3 c82 3 120 2 124
-4z m887 -555 c40 -47 46 -59 35 -71 -10 -13 -9 -15 10 -10 18 5 32 -6 75 -56
29 -33 59 -67 66 -75 19 -19 17 -21 -201 -146 l-188 -107 -162 48 c-89 26
-203 59 -254 74 -51 14 -94 28 -97 31 -3 3 14 75 38 159 l42 155 40 6 c21 4
79 10 128 14 49 4 101 8 115 10 14 2 64 6 111 10 47 4 86 8 87 9 2 2 27 3 55
4 53 1 53 1 100 -55z"/>
<path d="M1437 1628 c-6 -21 -2 -36 7 -27 10 11 16 49 8 49 -5 0 -12 -10 -15
-22z"/>
<path d="M1417 1558 c-4 -12 -4 -24 -1 -27 6 -7 24 20 24 37 0 21 -17 13 -23
-10z"/>
<path d="M1397 1488 c-4 -12 -4 -24 -1 -27 6 -7 24 20 24 37 0 21 -17 13 -23
-10z"/>
<path d="M1377 1418 c-4 -12 -4 -24 -1 -27 6 -7 24 20 24 37 0 21 -17 13 -23
-10z"/>
<path d="M520 1550 c11 -20 30 -28 30 -12 0 11 -22 32 -32 32 -5 0 -4 -9 2
-20z"/>
<path d="M560 1511 c0 -12 29 -35 36 -28 4 3 -1 13 -9 22 -17 17 -27 19 -27 6z"/>
<path d="M700 1352 c0 -11 22 -32 32 -32 5 0 4 9 -2 20 -11 20 -30 28 -30 12z"/>
<path d="M1190 1330 c0 -5 14 -10 31 -10 17 0 28 4 24 10 -3 6 -17 10 -31 10
-13 0 -24 -4 -24 -10z"/>
<path d="M1052 1323 c-6 -2 -10 -8 -7 -13 6 -10 45 -1 45 11 0 10 -17 11 -38
2z"/>
<path d="M1118 1318 c8 -8 17 -8 34 0 22 10 21 11 -11 11 -27 1 -32 -2 -23
-11z"/>
<path d="M965 1310 c-4 -6 7 -10 25 -10 18 0 29 4 25 10 -3 6 -15 10 -25 10
-10 0 -22 -4 -25 -10z"/>
<path d="M748 1285 c5 -29 8 -30 29 -10 17 18 16 20 -13 29 -19 6 -21 3 -16
-19z"/>
<path d="M823 1303 c-19 -7 -15 -22 5 -18 9 2 23 4 30 4 7 1 10 6 7 11 -7 11
-22 12 -42 3z"/>
<path d="M890 1300 c0 -5 9 -10 19 -10 11 0 23 5 26 10 4 6 -5 10 -19 10 -14
0 -26 -4 -26 -10z"/>
<path d="M737 1218 c-4 -12 -4 -24 -1 -27 6 -7 24 20 24 37 0 21 -17 13 -23
-10z"/>
<path d="M723 1150 c-6 -14 -8 -29 -5 -34 7 -13 24 22 19 42 -3 14 -6 12 -14
-8z"/>
<path d="M697 1071 c-5 -22 1 -33 14 -25 12 7 12 44 0 44 -5 0 -11 -9 -14 -19z"/>
<path d="M680 995 c0 -14 5 -25 10 -25 6 0 10 11 10 25 0 14 -4 25 -10 25 -5
0 -10 -11 -10 -25z"/>
<path d="M666 934 c-9 -23 -7 -46 3 -40 12 8 21 45 11 51 -4 3 -11 -2 -14 -11z"/>
<path d="M645 849 c-6 -19 0 -38 9 -28 10 12 16 49 7 49 -5 0 -13 -9 -16 -21z"/>
<path d="M630 791 c0 -5 -3 -17 -7 -27 -4 -11 -2 -15 7 -12 16 5 24 48 10 48
-6 0 -10 -4 -10 -9z"/>
<path d="M1400 1251 c0 -19 12 -41 20 -36 10 6 1 45 -11 45 -5 0 -9 -4 -9 -9z"/>
<path d="M1428 1175 c2 -14 8 -25 13 -25 10 0 11 12 3 34 -10 25 -22 19 -16
-9z"/>
<path d="M1450 1116 c0 -7 8 -20 17 -27 15 -12 16 -12 10 4 -4 10 -7 23 -7 28
0 5 -4 9 -10 9 -5 0 -10 -6 -10 -14z"/>
<path d="M1478 1049 c5 -13 14 -25 20 -27 8 -2 9 3 4 19 -5 13 -14 25 -20 27
-8 2 -9 -3 -4 -19z"/>
<path d="M1500 1003 c0 -19 11 -43 21 -43 13 0 11 14 -6 36 -8 10 -15 14 -15
7z"/>
<path d="M1530 928 c0 -17 18 -44 24 -37 8 7 -5 49 -15 49 -5 0 -9 -6 -9 -12z"/>
<path d="M1558 875 c-8 -9 3 -45 13 -45 5 0 9 6 9 13 0 17 -15 39 -22 32z"/>
<path d="M1577 790 c-6 -22 9 -26 33 -10 13 9 13 11 0 20 -22 14 -27 12 -33
-10z"/>
<path d="M1645 790 c-4 -6 7 -10 24 -10 17 0 31 5 31 10 0 6 -11 10 -24 10
-14 0 -28 -4 -31 -10z"/>
<path d="M1725 790 c-4 -6 7 -10 24 -10 17 0 31 5 31 10 0 6 -11 10 -24 10
-14 0 -28 -4 -31 -10z"/>
<path d="M1531 747 c-6 -8 -8 -17 -4 -20 7 -8 33 11 33 24 0 13 -16 11 -29 -4z"/>
<path d="M1484 706 c-10 -8 -15 -18 -11 -22 4 -4 15 0 24 9 22 21 12 31 -13
13z"/>
<path d="M1430 655 c-14 -16 -10 -18 14 -9 9 3 16 10 16 15 0 14 -16 11 -30
-6z"/>
<path d="M1380 615 c-7 -9 -10 -18 -7 -22 8 -7 37 15 37 28 0 14 -16 11 -30
-6z"/>
<path d="M520 688 c0 -4 11 -8 25 -8 14 0 25 4 25 10 0 5 -11 9 -25 8 -14 -1
-25 -6 -25 -10z"/>
<path d="M445 680 c-3 -6 5 -10 19 -10 14 0 28 5 31 10 3 6 -5 10 -19 10 -14
0 -28 -4 -31 -10z"/>
<path d="M375 670 c-4 -6 5 -10 19 -10 14 0 26 5 26 10 0 6 -9 10 -19 10 -11
0 -23 -4 -26 -10z"/>
<path d="M300 660 c0 -5 11 -10 25 -10 14 0 25 5 25 10 0 6 -11 10 -25 10 -14
0 -25 -4 -25 -10z"/>
<path d="M720 632 c0 -5 11 -14 25 -20 29 -14 34 2 6 18 -24 12 -31 13 -31 2z"/>
<path d="M790 590 c0 -5 9 -14 20 -20 16 -8 20 -8 20 4 0 7 -7 17 -16 20 -21
8 -24 8 -24 -4z"/>
<path d="M850 552 c0 -13 39 -32 45 -22 3 5 -3 14 -14 19 -23 13 -31 14 -31 3z"/>
<path d="M1280 525 c-20 -24 -6 -28 15 -5 10 11 13 20 8 20 -6 0 -16 -7 -23
-15z"/>
<path d="M924 505 c22 -17 36 -19 36 -6 0 10 -24 21 -43 21 -7 0 -3 -7 7 -15z"/>
<path d="M1225 480 c-21 -23 -4 -27 19 -4 18 17 20 24 8 24 -5 0 -17 -9 -27
-20z"/>
<path d="M980 482 c0 -13 23 -32 38 -32 7 0 10 4 7 10 -9 14 -45 32 -45 22z"/>
<path d="M1045 440 c-3 -5 3 -14 14 -19 23 -13 31 -14 31 -3 0 13 -39 32 -45
22z"/>
<path d="M1171 436 c-19 -23 4 -28 24 -6 15 17 16 20 3 20 -9 0 -21 -6 -27
-14z"/>
<path d="M1115 392 c3 -7 5 -19 5 -25 1 -13 30 22 30 34 0 4 -9 7 -20 6 -13
-1 -19 -6 -15 -15z"/>
<path d="M1107 313 c-5 -26 -2 -42 7 -32 9 11 15 59 7 59 -5 0 -11 -12 -14
-27z"/>
<path d="M1093 240 c-6 -14 -8 -29 -5 -34 7 -13 24 22 19 42 -3 14 -6 12 -14
-8z"/>
</g>
</svg>
